<mxfile modified="2021-12-19T01:59:45.677Z" host="app.diagrams.net" agent="5.0 (Macintosh; Intel Mac OS X 10_11_6) AppleWebKit/537.36 (KHTML, like Gecko) Chrome/96.0.4664.45 Safari/537.36" etag="fYVKa1OLlRhJLyBGLoCG" version="16.0.0" type="github">
  <diagram id="Ht1M8jgEwFfnCIfOTk4-" name="Page-1">
    <mxGraphModel dx="1720" dy="2189" grid="1" gridSize="10" guides="1" tooltips="1" connect="1" arrows="1" fold="1" page="1" pageScale="1" pageWidth="850" pageHeight="1100" math="0" shadow="0">
      <root>
        <mxCell id="0" />
        <mxCell id="1" parent="0" />
        <mxCell id="UEzPUAAOIrF-is8g5C7q-154" value="AWS Cloud" style="points=[[0,0],[0.25,0],[0.5,0],[0.75,0],[1,0],[1,0.25],[1,0.5],[1,0.75],[1,1],[0.75,1],[0.5,1],[0.25,1],[0,1],[0,0.75],[0,0.5],[0,0.25]];outlineConnect=0;gradientColor=none;html=1;whiteSpace=wrap;fontSize=12;fontStyle=0;shape=mxgraph.aws4.group;grIcon=mxgraph.aws4.group_aws_cloud_alt;strokeColor=#232F3E;fillColor=none;verticalAlign=top;align=left;spacingLeft=30;fontColor=#232F3E;dashed=0;labelBackgroundColor=#ffffff;container=1;pointerEvents=0;collapsible=0;recursiveResize=0;" parent="1" vertex="1">
          <mxGeometry x="320" y="-1024" width="510" height="274" as="geometry" />
        </mxCell>
        <mxCell id="p693AnayMS0oR76MkHpQ-14" value="" style="edgeStyle=orthogonalEdgeStyle;rounded=0;orthogonalLoop=1;jettySize=auto;html=1;" edge="1" parent="UEzPUAAOIrF-is8g5C7q-154" source="p693AnayMS0oR76MkHpQ-8" target="p693AnayMS0oR76MkHpQ-11">
          <mxGeometry relative="1" as="geometry" />
        </mxCell>
        <mxCell id="p693AnayMS0oR76MkHpQ-8" value="Load Balancer" style="sketch=0;outlineConnect=0;fontColor=#232F3E;gradientColor=none;fillColor=#4D27AA;strokeColor=none;dashed=0;verticalLabelPosition=bottom;verticalAlign=top;align=center;html=1;fontSize=12;fontStyle=0;aspect=fixed;pointerEvents=1;shape=mxgraph.aws4.network_load_balancer;" vertex="1" parent="UEzPUAAOIrF-is8g5C7q-154">
          <mxGeometry x="151" y="98" width="78" height="78" as="geometry" />
        </mxCell>
        <mxCell id="p693AnayMS0oR76MkHpQ-15" style="edgeStyle=orthogonalEdgeStyle;rounded=0;orthogonalLoop=1;jettySize=auto;html=1;" edge="1" parent="UEzPUAAOIrF-is8g5C7q-154" source="p693AnayMS0oR76MkHpQ-10" target="p693AnayMS0oR76MkHpQ-8">
          <mxGeometry relative="1" as="geometry" />
        </mxCell>
        <mxCell id="p693AnayMS0oR76MkHpQ-18" style="edgeStyle=orthogonalEdgeStyle;rounded=0;orthogonalLoop=1;jettySize=auto;html=1;" edge="1" parent="UEzPUAAOIrF-is8g5C7q-154" source="p693AnayMS0oR76MkHpQ-10" target="p693AnayMS0oR76MkHpQ-17">
          <mxGeometry relative="1" as="geometry" />
        </mxCell>
        <mxCell id="p693AnayMS0oR76MkHpQ-10" value="Webserver 1" style="sketch=0;outlineConnect=0;fontColor=#232F3E;gradientColor=none;fillColor=#D45B07;strokeColor=none;dashed=0;verticalLabelPosition=bottom;verticalAlign=top;align=center;html=1;fontSize=12;fontStyle=0;aspect=fixed;pointerEvents=1;shape=mxgraph.aws4.instance2;" vertex="1" parent="UEzPUAAOIrF-is8g5C7q-154">
          <mxGeometry x="272" y="24" width="48" height="48" as="geometry" />
        </mxCell>
        <mxCell id="p693AnayMS0oR76MkHpQ-19" style="edgeStyle=orthogonalEdgeStyle;rounded=0;orthogonalLoop=1;jettySize=auto;html=1;" edge="1" parent="UEzPUAAOIrF-is8g5C7q-154" source="p693AnayMS0oR76MkHpQ-11" target="p693AnayMS0oR76MkHpQ-17">
          <mxGeometry relative="1" as="geometry" />
        </mxCell>
        <mxCell id="p693AnayMS0oR76MkHpQ-11" value="Webserver 2" style="sketch=0;outlineConnect=0;fontColor=#232F3E;gradientColor=none;fillColor=#D45B07;strokeColor=none;dashed=0;verticalLabelPosition=bottom;verticalAlign=top;align=center;html=1;fontSize=12;fontStyle=0;aspect=fixed;pointerEvents=1;shape=mxgraph.aws4.instance2;" vertex="1" parent="UEzPUAAOIrF-is8g5C7q-154">
          <mxGeometry x="272" y="113" width="48" height="48" as="geometry" />
        </mxCell>
        <mxCell id="p693AnayMS0oR76MkHpQ-16" style="edgeStyle=orthogonalEdgeStyle;rounded=0;orthogonalLoop=1;jettySize=auto;html=1;" edge="1" parent="UEzPUAAOIrF-is8g5C7q-154" source="p693AnayMS0oR76MkHpQ-12" target="p693AnayMS0oR76MkHpQ-8">
          <mxGeometry relative="1" as="geometry" />
        </mxCell>
        <mxCell id="p693AnayMS0oR76MkHpQ-20" style="edgeStyle=orthogonalEdgeStyle;rounded=0;orthogonalLoop=1;jettySize=auto;html=1;" edge="1" parent="UEzPUAAOIrF-is8g5C7q-154" source="p693AnayMS0oR76MkHpQ-12" target="p693AnayMS0oR76MkHpQ-17">
          <mxGeometry relative="1" as="geometry" />
        </mxCell>
        <mxCell id="p693AnayMS0oR76MkHpQ-12" value="Webserver 3" style="sketch=0;outlineConnect=0;fontColor=#232F3E;gradientColor=none;fillColor=#D45B07;strokeColor=none;dashed=0;verticalLabelPosition=bottom;verticalAlign=top;align=center;html=1;fontSize=12;fontStyle=0;aspect=fixed;pointerEvents=1;shape=mxgraph.aws4.instance2;" vertex="1" parent="UEzPUAAOIrF-is8g5C7q-154">
          <mxGeometry x="272" y="196" width="48" height="48" as="geometry" />
        </mxCell>
        <mxCell id="p693AnayMS0oR76MkHpQ-17" value="" style="sketch=0;points=[[0,0,0],[0.25,0,0],[0.5,0,0],[0.75,0,0],[1,0,0],[0,1,0],[0.25,1,0],[0.5,1,0],[0.75,1,0],[1,1,0],[0,0.25,0],[0,0.5,0],[0,0.75,0],[1,0.25,0],[1,0.5,0],[1,0.75,0]];outlineConnect=0;fontColor=#232F3E;gradientColor=#4D72F3;gradientDirection=north;fillColor=#3334B9;strokeColor=#ffffff;dashed=0;verticalLabelPosition=bottom;verticalAlign=top;align=center;html=1;fontSize=12;fontStyle=0;aspect=fixed;shape=mxgraph.aws4.resourceIcon;resIcon=mxgraph.aws4.database;" vertex="1" parent="UEzPUAAOIrF-is8g5C7q-154">
          <mxGeometry x="389" y="94" width="86" height="86" as="geometry" />
        </mxCell>
        <mxCell id="p693AnayMS0oR76MkHpQ-25" value="" style="sketch=0;outlineConnect=0;fontColor=#232F3E;gradientColor=none;fillColor=#232F3D;strokeColor=none;dashed=0;verticalLabelPosition=bottom;verticalAlign=top;align=center;html=1;fontSize=12;fontStyle=0;aspect=fixed;pointerEvents=1;shape=mxgraph.aws4.generic_firewall;" vertex="1" parent="UEzPUAAOIrF-is8g5C7q-154">
          <mxGeometry x="25" y="94" width="78" height="66" as="geometry" />
        </mxCell>
        <mxCell id="p693AnayMS0oR76MkHpQ-22" value="" style="sketch=0;outlineConnect=0;fontColor=#232F3E;gradientColor=none;fillColor=#232F3D;strokeColor=none;dashed=0;verticalLabelPosition=bottom;verticalAlign=top;align=center;html=1;fontSize=12;fontStyle=0;aspect=fixed;pointerEvents=1;shape=mxgraph.aws4.internet_alt1;" vertex="1" parent="1">
          <mxGeometry x="160" y="-920" width="78" height="48" as="geometry" />
        </mxCell>
        <mxCell id="p693AnayMS0oR76MkHpQ-27" value="" style="edgeStyle=orthogonalEdgeStyle;html=1;endArrow=open;elbow=vertical;startArrow=open;startFill=0;endFill=0;strokeColor=#545B64;rounded=0;" edge="1" parent="1">
          <mxGeometry width="100" relative="1" as="geometry">
            <mxPoint x="230" y="-890" as="sourcePoint" />
            <mxPoint x="330" y="-890" as="targetPoint" />
          </mxGeometry>
        </mxCell>
        <mxCell id="p693AnayMS0oR76MkHpQ-28" value="" style="sketch=0;outlineConnect=0;fontColor=#232F3E;gradientColor=none;fillColor=#232F3D;strokeColor=none;dashed=0;verticalLabelPosition=bottom;verticalAlign=top;align=center;html=1;fontSize=12;fontStyle=0;aspect=fixed;pointerEvents=1;shape=mxgraph.aws4.client;" vertex="1" parent="1">
          <mxGeometry x="82" y="-1060" width="78" height="76" as="geometry" />
        </mxCell>
        <mxCell id="p693AnayMS0oR76MkHpQ-29" value="" style="sketch=0;outlineConnect=0;fontColor=#232F3E;gradientColor=none;fillColor=#232F3D;strokeColor=none;dashed=0;verticalLabelPosition=bottom;verticalAlign=top;align=center;html=1;fontSize=12;fontStyle=0;aspect=fixed;pointerEvents=1;shape=mxgraph.aws4.client;" vertex="1" parent="1">
          <mxGeometry x="20" y="-900" width="78" height="76" as="geometry" />
        </mxCell>
        <mxCell id="p693AnayMS0oR76MkHpQ-30" value="" style="sketch=0;outlineConnect=0;fontColor=#232F3E;gradientColor=none;fillColor=#232F3D;strokeColor=none;dashed=0;verticalLabelPosition=bottom;verticalAlign=top;align=center;html=1;fontSize=12;fontStyle=0;aspect=fixed;pointerEvents=1;shape=mxgraph.aws4.mobile_client;" vertex="1" parent="1">
          <mxGeometry x="150" y="-770" width="41" height="78" as="geometry" />
        </mxCell>
        <mxCell id="p693AnayMS0oR76MkHpQ-31" value="" style="edgeStyle=orthogonalEdgeStyle;html=1;endArrow=open;elbow=vertical;startArrow=open;startFill=0;endFill=0;strokeColor=#545B64;rounded=0;exitX=1.004;exitY=0.526;exitDx=0;exitDy=0;exitPerimeter=0;" edge="1" parent="1" source="p693AnayMS0oR76MkHpQ-28" target="p693AnayMS0oR76MkHpQ-22">
          <mxGeometry width="100" relative="1" as="geometry">
            <mxPoint x="170" y="-1020" as="sourcePoint" />
            <mxPoint x="190" y="-930" as="targetPoint" />
          </mxGeometry>
        </mxCell>
        <mxCell id="p693AnayMS0oR76MkHpQ-32" value="" style="edgeStyle=orthogonalEdgeStyle;html=1;endArrow=open;elbow=vertical;startArrow=open;startFill=0;endFill=0;strokeColor=#545B64;rounded=0;" edge="1" parent="1" source="p693AnayMS0oR76MkHpQ-29" target="p693AnayMS0oR76MkHpQ-22">
          <mxGeometry width="100" relative="1" as="geometry">
            <mxPoint x="-50" y="-940" as="sourcePoint" />
            <mxPoint x="50" y="-940" as="targetPoint" />
          </mxGeometry>
        </mxCell>
        <mxCell id="p693AnayMS0oR76MkHpQ-33" value="" style="edgeStyle=orthogonalEdgeStyle;html=1;endArrow=open;elbow=vertical;startArrow=open;startFill=0;endFill=0;strokeColor=#545B64;rounded=0;" edge="1" parent="1" source="p693AnayMS0oR76MkHpQ-30" target="p693AnayMS0oR76MkHpQ-22">
          <mxGeometry width="100" relative="1" as="geometry">
            <mxPoint x="170" y="-780" as="sourcePoint" />
            <mxPoint x="270" y="-780" as="targetPoint" />
          </mxGeometry>
        </mxCell>
      </root>
    </mxGraphModel>
  </diagram>
</mxfile>
